<mxfile host="65bd71144e">
    <diagram id="sUUaPduqyuZYLTc3TDkt" name="1-FactoryMethod">
        <mxGraphModel dx="912" dy="831" grid="0" gridSize="10" guides="1" tooltips="1" connect="1" arrows="1" fold="1" page="1" pageScale="1" pageWidth="827" pageHeight="583" background="#ffffff" math="0" shadow="0">
            <root>
                <mxCell id="0"/>
                <mxCell id="1" parent="0"/>
                <mxCell id="5" value="&lt;span style=&quot;&quot;&gt;&lt;font color=&quot;#130606&quot;&gt;ProductA&lt;/font&gt;&lt;/span&gt;" style="html=1;shadow=0;swimlaneLine=0;labelBackgroundColor=none;fillColor=#d5e8d4;strokeColor=#82b366;rounded=1;container=0;" parent="1" vertex="1">
                    <mxGeometry x="598.976618705036" y="408.41979010494754" width="108.81294964028778" height="43.32833583208395" as="geometry"/>
                </mxCell>
                <mxCell id="8" value="«interface»&lt;br&gt;&lt;b&gt;IProduct&lt;/b&gt;" style="html=1;shadow=0;swimlaneLine=0;fillColor=#f8cecc;strokeColor=#b85450;fontColor=#000033;rounded=1;container=0;" parent="1" vertex="1">
                    <mxGeometry x="598.976618705036" y="301.832083958021" width="108.81294964028778" height="43.32833583208395" as="geometry"/>
                </mxCell>
                <mxCell id="11" value="&lt;font color=&quot;#050505&quot;&gt;ProductB&lt;/font&gt;" style="html=1;shadow=0;swimlaneLine=0;fillColor=#ffe6cc;strokeColor=#d79b00;rounded=1;container=0;" parent="1" vertex="1">
                    <mxGeometry x="598.976618705036" y="195.24437781109447" width="108.81294964028778" height="43.32833583208395" as="geometry"/>
                </mxCell>
                <object label="" Text="implement" id="12">
                    <mxCell style="endArrow=block;dashed=1;endFill=0;endSize=12;html=1;entryX=0.5;entryY=1;entryDx=0;entryDy=0;exitX=0.5;exitY=0;exitDx=0;exitDy=0;shadow=0;swimlaneLine=0;fontColor=#050505;fillColor=#d5e8d4;strokeColor=#82b366;" parent="1" source="5" target="8" edge="1">
                        <mxGeometry width="160" relative="1" as="geometry">
                            <mxPoint x="594.0305755395685" y="266.3028485757121" as="sourcePoint"/>
                            <mxPoint x="752.3039568345325" y="231.64017991004496" as="targetPoint"/>
                        </mxGeometry>
                    </mxCell>
                </object>
                <mxCell id="13" value="" style="endArrow=block;dashed=1;endFill=0;endSize=12;html=1;entryX=0.5;entryY=0;entryDx=0;entryDy=0;shadow=0;swimlaneLine=0;fontColor=#050505;fillColor=#ffe6cc;strokeColor=#d79b00;" parent="1" source="11" target="8" edge="1">
                    <mxGeometry width="160" relative="1" as="geometry">
                        <mxPoint x="689.9838129496404" y="139.78410794602698" as="sourcePoint"/>
                        <mxPoint x="673.1672661870504" y="269.76911544227886" as="targetPoint"/>
                    </mxGeometry>
                </mxCell>
                <mxCell id="29" value="Use" style="endArrow=open;endSize=12;dashed=1;html=1;entryX=0;entryY=0.5;entryDx=0;entryDy=0;shadow=0;swimlaneLine=0;fontColor=#050505;labelBackgroundColor=none;fillColor=#dae8fc;strokeColor=#6c8ebf;exitX=1;exitY=0.5;exitDx=0;exitDy=0;" parent="1" source="28" target="8" edge="1">
                    <mxGeometry width="160" relative="1" as="geometry">
                        <mxPoint x="326.9442446043166" y="193.94452773613193" as="sourcePoint"/>
                        <mxPoint x="485.2176258992807" y="194.3778110944528" as="targetPoint"/>
                        <mxPoint as="offset"/>
                    </mxGeometry>
                </mxCell>
                <mxCell id="30" value="" style="endArrow=block;endSize=16;endFill=0;html=1;exitX=0.5;exitY=0;exitDx=0;exitDy=0;entryX=0.5;entryY=1;entryDx=0;entryDy=0;shadow=0;swimlaneLine=0;fontColor=#050505;fillColor=#d5e8d4;strokeColor=#82b366;labelBackgroundColor=none;" parent="1" source="17" target="25" edge="1">
                    <mxGeometry x="0.0157" y="-13" width="160" relative="1" as="geometry">
                        <mxPoint x="99.42625899280577" y="261.1034482758621" as="sourcePoint"/>
                        <mxPoint x="178.5629496402878" y="183.11244377811096" as="targetPoint"/>
                        <mxPoint as="offset"/>
                    </mxGeometry>
                </mxCell>
                <mxCell id="31" value="" style="endArrow=block;endSize=16;endFill=0;html=1;entryX=0.5;entryY=0;entryDx=0;entryDy=0;shadow=0;swimlaneLine=0;fontColor=#050505;labelBackgroundColor=none;fillColor=#ffe6cc;strokeColor=#d79b00;" parent="1" source="24" target="25" edge="1">
                    <mxGeometry width="160" relative="1" as="geometry">
                        <mxPoint x="245" y="195" as="sourcePoint"/>
                        <mxPoint x="218.13129496402877" y="183.11244377811096" as="targetPoint"/>
                    </mxGeometry>
                </mxCell>
                <mxCell id="32" value="Use" style="endArrow=open;endSize=12;dashed=1;html=1;entryX=0;entryY=0;entryDx=0;entryDy=0;shadow=0;swimlaneLine=0;fontColor=#050505;fillColor=#ffe6cc;strokeColor=#d79b00;labelBackgroundColor=none;exitX=1;exitY=0.5;exitDx=0;exitDy=0;" parent="1" source="24" target="8" edge="1">
                    <mxGeometry width="160" relative="1" as="geometry">
                        <mxPoint x="326.9442446043166" y="175.31334332833583" as="sourcePoint"/>
                        <mxPoint x="455.5413669064749" y="139.78410794602698" as="targetPoint"/>
                    </mxGeometry>
                </mxCell>
                <mxCell id="33" value="Use" style="endArrow=open;endSize=12;dashed=1;html=1;entryX=0;entryY=1;entryDx=0;entryDy=0;shadow=0;swimlaneLine=0;fontColor=#050505;fillColor=#d5e8d4;strokeColor=#82b366;labelBackgroundColor=none;exitX=1;exitY=0;exitDx=0;exitDy=0;" parent="1" source="17" target="8" edge="1">
                    <mxGeometry width="160" relative="1" as="geometry">
                        <mxPoint x="328" y="492" as="sourcePoint"/>
                        <mxPoint x="628.6528776978417" y="320.8965517241379" as="targetPoint"/>
                    </mxGeometry>
                </mxCell>
                <mxCell id="18" value="..." style="text;strokeColor=none;fillColor=none;align=left;verticalAlign=top;spacingLeft=4;spacingRight=4;overflow=hidden;rotatable=0;points=[[0,0.5],[1,0.5]];portConstraint=eastwest;shadow=0;swimlaneLine=0;fontColor=#050505;rounded=1;container=0;" parent="1" vertex="1">
                    <mxGeometry x="119.21043165467627" y="451.7511244377811" width="207.73381294964034" height="22.530734632683657" as="geometry"/>
                </mxCell>
                <mxCell id="20" value="+ CreationMethod(): IProduct" style="text;strokeColor=none;fillColor=none;align=left;verticalAlign=top;spacingLeft=4;spacingRight=4;overflow=hidden;rotatable=0;points=[[0,0.5],[1,0.5]];portConstraint=eastwest;shadow=0;swimlaneLine=0;fontColor=#050505;rounded=1;container=0;" parent="1" vertex="1">
                    <mxGeometry x="119.21043165467627" y="481.2143928035982" width="207.73381294964034" height="22.530734632683657" as="geometry"/>
                </mxCell>
                <mxCell id="22" value="..." style="text;strokeColor=none;fillColor=none;align=left;verticalAlign=top;spacingLeft=4;spacingRight=4;overflow=hidden;rotatable=0;points=[[0,0.5],[1,0.5]];portConstraint=eastwest;shadow=0;swimlaneLine=0;fontColor=#050505;rounded=0;container=0;" parent="1" vertex="1">
                    <mxGeometry x="119.21043165467627" y="146.71964017991004" width="197.84172661870502" height="22.530734632683657" as="geometry"/>
                </mxCell>
                <mxCell id="24" value="+ CreationMethod(): IProduct" style="text;strokeColor=none;fillColor=none;align=left;verticalAlign=top;spacingLeft=4;spacingRight=4;overflow=hidden;rotatable=0;points=[[0,0.5],[1,0.5]];portConstraint=eastwest;shadow=0;swimlaneLine=0;fontColor=#050505;rounded=1;container=0;" parent="1" vertex="1">
                    <mxGeometry x="119.21043165467627" y="176.18290854572714" width="197.84172661870502" height="22.530734632683657" as="geometry"/>
                </mxCell>
                <mxCell id="37" value="" style="group;glass=0;shadow=0;fillColor=none;strokeColor=#6c8ebf;imageAspect=1;rounded=1;" parent="1" vertex="1" connectable="0">
                    <mxGeometry x="113.21" y="264" width="211.79" height="77.99" as="geometry"/>
                </mxCell>
                <mxCell id="25" value="AbstractCreator" style="swimlane;fontStyle=3;align=center;verticalAlign=top;childLayout=stackLayout;horizontal=1;startSize=26;horizontalStack=0;resizeParent=1;resizeParentMax=0;resizeLast=0;collapsible=1;marginBottom=0;shadow=0;swimlaneLine=1;fillColor=#bac8d3;strokeColor=#23445d;fontColor=#0f0606;rounded=1;container=0;" parent="37" vertex="1">
                    <mxGeometry width="211.79" height="77.98999999999997" as="geometry">
                        <mxRectangle x="110" y="90" width="130" height="30" as="alternateBounds"/>
                    </mxGeometry>
                </mxCell>
                <mxCell id="28" value="+ CreationMethod(): IProduct" style="text;strokeColor=none;fillColor=none;align=left;verticalAlign=top;spacingLeft=4;spacingRight=4;overflow=hidden;rotatable=0;points=[[0,0.5],[1,0.5]];portConstraint=eastwest;fontStyle=2;shadow=0;swimlaneLine=0;fontColor=#050505;rounded=1;container=0;" parent="37" vertex="1">
                    <mxGeometry y="55.46042174464649" width="211.79" height="22.529578255353496" as="geometry"/>
                </mxCell>
                <mxCell id="26" value="..." style="text;strokeColor=none;fillColor=none;align=left;verticalAlign=top;spacingLeft=4;spacingRight=4;overflow=hidden;rotatable=0;points=[[0,0.5],[1,0.5]];portConstraint=eastwest;shadow=0;swimlaneLine=0;fontColor=#050505;rounded=1;container=0;" parent="37" vertex="1">
                    <mxGeometry y="25.998665564568828" width="211.79" height="22.529578255353496" as="geometry"/>
                </mxCell>
                <mxCell id="27" value="" style="line;strokeWidth=1;fillColor=none;align=left;verticalAlign=middle;spacingTop=-1;spacingLeft=3;spacingRight=3;rotatable=0;labelPosition=right;points=[];portConstraint=eastwest;strokeColor=inherit;shadow=0;swimlaneLine=0;fontColor=#050505;rounded=1;container=0;" parent="37" vertex="1">
                    <mxGeometry y="45.99837367075471" width="211.79" height="6.932177924724152" as="geometry"/>
                </mxCell>
                <mxCell id="38" value="" style="group" vertex="1" connectable="0" parent="1">
                    <mxGeometry x="113.21" y="120.71964017991004" width="197.84172661870502" height="77.99400299850075" as="geometry"/>
                </mxCell>
                <mxCell id="21" value="CreatorB" style="swimlane;fontStyle=1;align=center;verticalAlign=top;childLayout=stackLayout;horizontal=1;startSize=26;horizontalStack=0;resizeParent=1;resizeParentMax=0;resizeLast=0;collapsible=1;marginBottom=0;shadow=0;swimlaneLine=1;fillColor=#ffe6cc;strokeColor=#d79b00;fontColor=#291919;rounded=1;container=0;" parent="38" vertex="1">
                    <mxGeometry width="197.84172661870502" height="77.99400299850075" as="geometry">
                        <mxRectangle x="210" y="206" width="90" height="30" as="alternateBounds"/>
                    </mxGeometry>
                </mxCell>
                <mxCell id="23" value="" style="line;strokeWidth=1;align=left;verticalAlign=middle;spacingTop=-1;spacingLeft=3;spacingRight=3;rotatable=0;labelPosition=right;points=[];portConstraint=eastwest;shadow=0;swimlaneLine=0;rounded=1;container=0;fillColor=#f0a30a;fontColor=#000000;strokeColor=#BD7000;" parent="38" vertex="1">
                    <mxGeometry y="48.53073463268365" width="197.84172661870502" height="6.9325337331334325" as="geometry"/>
                </mxCell>
                <mxCell id="15" value="&lt;span style=&quot;background-color: rgb(246, 238, 238);&quot;&gt;Factory Method&lt;/span&gt;" style="shape=umlFrame;whiteSpace=wrap;html=1;width=102;height=15;boundedLbl=1;verticalAlign=middle;align=left;spacingLeft=5;swimlaneLine=0;fontColor=#333333;shadow=0;fillColor=none;strokeColor=none;rounded=1;container=0;" parent="1" vertex="1">
                    <mxGeometry x="1" y="2" width="825.0000000000002" height="578" as="geometry"/>
                </mxCell>
                <mxCell id="39" value="" style="group" vertex="1" connectable="0" parent="1">
                    <mxGeometry x="113.21" y="425.75" width="213.79" height="77.99" as="geometry"/>
                </mxCell>
                <mxCell id="17" value="CreatorA" style="swimlane;fontStyle=1;align=center;verticalAlign=top;childLayout=stackLayout;horizontal=1;startSize=26;horizontalStack=0;resizeParent=1;resizeParentMax=0;resizeLast=0;collapsible=1;marginBottom=0;shadow=0;swimlaneLine=1;fillColor=#d5e8d4;strokeColor=#82b366;fontColor=#0d0808;rounded=1;container=0;glass=0;" parent="39" vertex="1">
                    <mxGeometry width="213.78999999999996" height="77.99000000000002" as="geometry">
                        <mxRectangle x="50" y="206" width="90" height="30" as="alternateBounds"/>
                    </mxGeometry>
                </mxCell>
                <mxCell id="19" value="" style="line;strokeWidth=1;fillColor=#d5e8d4;align=left;verticalAlign=middle;spacingTop=-1;spacingLeft=3;spacingRight=3;rotatable=0;labelPosition=right;points=[];portConstraint=eastwest;strokeColor=#82b366;shadow=0;swimlaneLine=0;rounded=1;container=0;" parent="39" vertex="1">
                    <mxGeometry y="48.52824381992237" width="213.78999999999996" height="6.932177924724156" as="geometry"/>
                </mxCell>
            </root>
        </mxGraphModel>
    </diagram>
</mxfile>